<svg xmlns="http://www.w3.org/2000/svg" width="221" height="87" fill="none" viewBox="0 0 221 87">
  <path fill="#6F71EE" d="M1.849 44.571A1 1 0 1 0 .15 45.63l1.7-1.06ZM125.69 79.93l-.269-.963.269.963Zm80.161-76.41a1 1 0 1 0-1.902-.62l1.902.62Zm-25.769 15.734a1 1 0 0 0 1.237 1.572l-1.237-1.572ZM204.89 1l.844-.537a1.002 1.002 0 0 0-1.462-.249l.618.786Zm13.726 23.417a1 1 0 0 0 1.687-1.074l-1.687 1.074ZM1 45.1c-.849.529-.848.53-.848.53l.002.003.007.01a6.417 6.417 0 0 0 .11.172c.076.117.189.288.339.508.3.44.749 1.078 1.349 1.878 1.2 1.6 3.009 3.848 5.453 6.466 4.887 5.235 12.322 11.95 22.524 17.892 20.43 11.9 51.88 20.649 96.023 8.334l-.538-1.926c-43.607 12.165-74.502 3.5-94.479-8.136C20.94 65.005 13.655 58.423 8.874 53.302 6.484 50.742 4.72 48.55 3.558 47a48.969 48.969 0 0 1-1.295-1.803 27.106 27.106 0 0 1-.414-.625v-.001L1 45.1Zm124.959 35.793c30.11-8.4 50.084-27.76 62.516-44.978a142.484 142.484 0 0 0 13.342-22.633 114.969 114.969 0 0 0 3.058-7.096 73.542 73.542 0 0 0 .914-2.481 11.003 11.003 0 0 0 .06-.181l.001-.003c.001 0 .001-.001-.95-.311l-.951-.31v.002l-.003.006a112.19 112.19 0 0 1-3.94 9.524 140.455 140.455 0 0 1-13.153 22.313c-12.261 16.982-31.892 35.982-61.432 44.222l.538 1.926Zm55.36-60.067 24.19-19.04-1.237-1.572-24.19 19.04 1.237 1.572Zm22.728-19.289 14.569 22.88 1.687-1.074L205.734.463l-1.687 1.074Z"/>
</svg>
