<svg width="40" height="36" viewBox="0 0 40 36" fill="none" xmlns="http://www.w3.org/2000/svg">
<path fill-rule="evenodd" clip-rule="evenodd" d="M16.9965 3.93005H32.6718L31.6448 0.0592244C31.6448 0.0592244 31.6226 0.0188566 31.6048 0.00988598C31.6048 0.00988598 31.5648 -0.00356994 31.5426 0.00091537L16.9965 3.93453V3.93005ZM1.29014 13.4479V8.17763L0.063146 8.50955C0.0409179 8.51403 0.0231354 8.53197 0.0097985 8.54991C0.0097985 8.54991 -0.00353835 8.59028 0.00090727 8.61271L1.28569 13.4479H1.29014ZM11.9863 23.7282H4.01975L4.53099 25.6569C4.53544 25.6793 4.55322 25.6973 4.57101 25.7107C4.58879 25.7197 4.61102 25.7242 4.63324 25.7197L11.9819 23.7327L11.9863 23.7282ZM22.3713 10.0794C21.4199 9.11955 20.104 8.523 18.6503 8.523C17.1966 8.523 15.8851 9.11506 14.9293 10.0749C13.9779 11.0348 13.3911 12.3624 13.3911 13.8291C13.3911 15.2958 13.9779 16.619 14.9293 17.5833C15.8807 18.5477 17.1966 19.1352 18.6503 19.1352C20.104 19.1352 21.4155 18.5432 22.3713 17.5833C23.3226 16.6235 23.9095 15.2958 23.9095 13.8291C23.9095 12.3624 23.3226 11.0393 22.3713 10.0749V10.0794ZM18.6503 7.53175C20.3752 7.53175 21.9356 8.23594 23.0648 9.37521C24.194 10.5145 24.8919 12.0888 24.8919 13.8291C24.8919 15.5694 24.194 17.1438 23.0648 18.283C21.9356 19.4223 20.3752 20.1265 18.6503 20.1265C16.9254 20.1265 15.365 19.4223 14.2358 18.283C13.1066 17.1438 12.4086 15.5694 12.4086 13.8291C12.4086 12.0888 13.1066 10.5145 14.2358 9.37521C15.365 8.23594 16.9254 7.53175 18.6503 7.53175ZM18.1568 13.1788C17.6723 13.0038 17.2899 12.7033 17.2899 11.9632C17.2899 11.5865 17.4411 11.2411 17.6856 10.9944C17.819 10.8598 17.9746 10.7567 18.1524 10.6849V13.1788H18.1568ZM19.1393 14.4795C19.6239 14.6544 20.0062 14.9549 20.0062 15.695C20.0062 16.0718 19.8551 16.4171 19.6105 16.6638C19.4772 16.7984 19.3216 16.9016 19.1438 16.9733V14.4795H19.1393ZM18.1568 9.49631C18.1568 9.22271 18.3791 8.99844 18.6503 8.99844C18.9215 8.99844 19.1438 9.22271 19.1438 9.49631V9.6533C19.5928 9.75198 19.9929 9.97624 20.3085 10.2947C20.7308 10.7208 20.9931 11.3129 20.9931 11.9632C20.9931 12.2368 20.7708 12.4611 20.4997 12.4611C20.2285 12.4611 20.0062 12.2368 20.0062 11.9632C20.0062 11.5865 19.8551 11.2411 19.6105 10.9944C19.4772 10.8598 19.3216 10.7567 19.1438 10.6849V13.4389C20.1173 13.6946 20.9931 14.0848 20.9931 15.695C20.9931 16.3454 20.7308 16.9374 20.3085 17.3635C19.9973 17.6775 19.5928 17.9063 19.1438 18.0049V18.1619C19.1438 18.4355 18.9215 18.6598 18.6503 18.6598C18.3791 18.6598 18.1568 18.4355 18.1568 18.1619V18.0049C17.7078 17.9063 17.3077 17.682 16.9921 17.3635C16.5697 16.9374 16.3074 16.3454 16.3074 15.695C16.3074 15.4214 16.5297 15.1971 16.8009 15.1971C17.0721 15.1971 17.2944 15.4214 17.2944 15.695C17.2944 16.0718 17.4455 16.4171 17.69 16.6638C17.8234 16.7984 17.979 16.9016 18.1568 16.9733V14.2193C17.1832 13.9637 16.3074 13.5735 16.3074 11.9632C16.3074 11.3129 16.5697 10.7208 16.9921 10.2947C17.3033 9.98073 17.7078 9.75198 18.1568 9.6533V9.49631ZM9.10998 13.0756C8.91882 12.8827 8.65653 12.7616 8.36312 12.7616C8.06971 12.7616 7.80742 12.8827 7.61626 13.0756C7.42509 13.2685 7.30506 13.5331 7.30506 13.8291C7.30506 14.1252 7.42509 14.3898 7.61626 14.5827C7.80742 14.7755 8.06971 14.8966 8.36312 14.8966C8.65653 14.8966 8.91882 14.7755 9.10998 14.5827C9.30115 14.3898 9.42118 14.1252 9.42118 13.8291C9.42118 13.5331 9.30115 13.2685 9.10998 13.0756ZM8.36312 11.7704C8.92771 11.7704 9.43451 11.9991 9.8035 12.3714C10.1725 12.7437 10.3992 13.2595 10.3992 13.8246C10.3992 14.3898 10.1725 14.9056 9.8035 15.2779C9.43451 15.6502 8.92327 15.8789 8.36312 15.8789C7.80297 15.8789 7.29173 15.6502 6.92274 15.2779C6.55375 14.9056 6.32703 14.3898 6.32703 13.8246C6.32703 13.2595 6.55375 12.7437 6.92274 12.3714C7.29173 11.9991 7.80297 11.7704 8.36312 11.7704ZM29.6754 13.0756C29.4843 12.8827 29.222 12.7616 28.9286 12.7616C28.6352 12.7616 28.3729 12.8827 28.1817 13.0756C27.9905 13.2685 27.8705 13.5331 27.8705 13.8291C27.8705 14.1252 27.9905 14.3898 28.1817 14.5827C28.3729 14.7755 28.6352 14.8966 28.9286 14.8966C29.222 14.8966 29.4843 14.7755 29.6754 14.5827C29.8666 14.3898 29.9866 14.1252 29.9866 13.8291C29.9866 13.5331 29.8666 13.2685 29.6754 13.0756ZM32.0494 33.2819C32.0494 33.0083 32.2717 32.784 32.5429 32.784C32.814 32.784 33.0363 33.0083 33.0363 33.2819V33.7304C33.3253 33.4209 33.4942 33.0711 33.4942 32.6809V31.0437C32.9518 31.5282 32.2094 31.9587 31.307 32.3131C29.4887 33.0262 26.9858 33.4703 24.234 33.4703C21.4821 33.4703 18.9793 33.0307 17.161 32.3131C16.2585 31.9587 15.5117 31.5282 14.9738 31.0437V32.6809C14.9738 33.0711 15.1427 33.4165 15.4317 33.7304V33.2819C15.4317 33.0083 15.6539 32.784 15.9251 32.784C16.1963 32.784 16.4186 33.0083 16.4186 33.2819V34.4481C16.672 34.5826 16.9521 34.7082 17.2455 34.8249C17.5522 34.946 17.8723 35.0536 18.2057 35.1523V34.4257C18.2057 34.1521 18.428 33.9278 18.6992 33.9278C18.9704 33.9278 19.1927 34.1521 19.1927 34.4257V35.4079C19.7884 35.547 20.3974 35.6546 20.9798 35.7399V34.946C20.9798 34.6724 21.2021 34.4481 21.4733 34.4481C21.7444 34.4481 21.9667 34.6724 21.9667 34.946V35.8654C22.6558 35.9417 23.2782 35.9821 23.7539 36V35.1029C23.7539 34.8293 23.9761 34.6051 24.2473 34.6051C24.5185 34.6051 24.7408 34.8293 24.7408 35.1029V36C25.2165 35.9821 25.8389 35.9417 26.5279 35.8654V34.946C26.5279 34.6724 26.7502 34.4481 27.0214 34.4481C27.2926 34.4481 27.5149 34.6724 27.5149 34.946V35.7399C28.0972 35.6546 28.7063 35.547 29.302 35.4079V34.4257C29.302 34.1521 29.5243 33.9278 29.7955 33.9278C30.0666 33.9278 30.2889 34.1521 30.2889 34.4257V35.1523C30.6223 35.0536 30.9424 34.946 31.2492 34.8249C31.547 34.7082 31.8227 34.5826 32.0761 34.4481V33.2819H32.0494ZM27.9105 16.1256C25.6255 17.4577 23.745 19.0186 22.518 20.4943H7.6696C7.55846 19.66 7.18058 18.9155 6.62044 18.3503C6.06029 17.7852 5.32232 17.3994 4.49543 17.2918V10.3709C5.32232 10.2588 6.06029 9.87756 6.62044 9.31242C7.18058 8.74727 7.56291 8.00271 7.6696 7.16844H29.631C29.7421 8.00271 30.12 8.74727 30.6801 9.31242C31.2403 9.87756 31.9783 10.2633 32.8051 10.3709V13.9682C32.1561 14.161 31.4803 14.3988 30.7868 14.6903C30.9069 14.4302 30.9735 14.1386 30.9735 13.8291C30.9735 13.2595 30.7468 12.7482 30.3778 12.3759C30.0088 12.0036 29.4976 11.7748 28.9375 11.7748C28.3773 11.7748 27.8661 12.0036 27.4971 12.3759C27.1281 12.7482 26.9014 13.264 26.9014 13.8291C26.9014 14.3943 27.1281 14.9101 27.4971 15.2824C27.7549 15.5425 28.0794 15.7354 28.4484 15.8251C28.2839 15.9148 28.1195 16.009 27.955 16.1032C27.9416 16.1077 27.9327 16.1166 27.9194 16.1211L27.9105 16.1256ZM35.0235 13.5017C34.8857 13.5152 34.7479 13.5376 34.6101 13.5555C34.3433 13.5959 34.0677 13.6497 33.7876 13.7125V9.90448C33.7876 9.63087 33.5653 9.40661 33.2942 9.40661C32.5429 9.40661 31.8671 9.10161 31.3737 8.60374C30.8802 8.10587 30.5779 7.4241 30.5779 6.66608C30.5779 6.39248 30.3556 6.16822 30.0844 6.16822H7.2117C6.94052 6.16822 6.71824 6.39248 6.71824 6.66608C6.71824 7.4241 6.41594 8.10587 5.92247 8.60374C5.42901 9.10161 4.75328 9.40661 4.00197 9.40661C3.73078 9.40661 3.5085 9.63087 3.5085 9.90448V17.7538C3.5085 18.0274 3.73078 18.2516 4.00197 18.2516C4.75328 18.2516 5.42901 18.5566 5.92247 19.0545C6.41594 19.5524 6.71824 20.2341 6.71824 20.9922C6.71824 21.2658 6.94052 21.49 7.2117 21.49H21.7889C21.5133 21.9206 21.2954 22.3378 21.1487 22.7414H2.35709C2.33486 22.7414 2.31263 22.7325 2.29929 22.7145L2.2904 22.7055C2.2904 22.7055 2.27262 22.6742 2.27262 22.6562V5.00652C2.27262 4.98409 2.28151 4.96167 2.29485 4.94821C2.29485 4.94821 2.33041 4.92578 2.35264 4.92578H34.9435C34.9657 4.92578 34.9879 4.93475 35.0013 4.9527L35.0102 4.96167C35.0102 4.96167 35.0235 4.99306 35.0235 5.01101V13.5017ZM34.4145 15.9866C35.6948 15.6546 36.5795 15.6143 36.7751 15.9507C36.9662 16.2871 36.4906 17.0406 35.5659 17.9915C34.5078 19.0769 32.8852 20.3149 30.9513 21.4407C30.9424 21.4452 30.9335 21.4497 30.9291 21.4541C29.0041 22.5755 27.1414 23.3694 25.6877 23.7461C24.4074 24.0781 23.5227 24.1184 23.3271 23.7775C23.1359 23.4411 23.6116 22.6876 24.5363 21.7367C25.5943 20.6513 27.217 19.4133 29.1508 18.2875C29.1597 18.283 29.1686 18.2785 29.1731 18.2741C31.098 17.1527 32.9607 16.3588 34.4145 15.9821V15.9866ZM28.6841 17.4219C30.689 16.2557 32.6362 15.4304 34.1744 15.0267C35.8949 14.5782 37.1841 14.6858 37.6242 15.4573C38.0643 16.2288 37.5131 17.4084 36.2683 18.6912C35.1524 19.8394 33.4587 21.1312 31.4448 22.3064C31.4359 22.3108 31.427 22.3153 31.4181 22.3198C29.4131 23.486 27.466 24.3113 25.9278 24.715C24.2029 25.1635 22.9181 25.0558 22.478 24.2844C22.0379 23.5129 22.5891 22.3333 23.8339 21.0505C24.9497 19.9022 26.6435 18.6105 28.6574 17.4353C28.6663 17.4308 28.6752 17.4263 28.6841 17.4219ZM30.6579 28.2225C30.0755 28.4512 29.4576 28.671 28.8397 28.8549C28.8263 28.8639 28.8174 28.8728 28.8041 28.8773C28.7196 28.9267 28.6263 28.9491 28.5329 28.9446C27.9994 29.0926 27.4704 29.2137 26.9592 29.2945C25.1987 29.5681 23.6472 29.3483 22.927 28.0969L22.5135 27.3748C20.7308 27.4824 19.1704 27.7515 18.0501 28.1283C17.0588 28.4602 16.463 28.819 16.463 29.142C16.463 29.5322 17.2499 29.9448 18.5214 30.3037C19.9706 30.7118 21.9889 30.963 24.2295 30.963C26.4701 30.963 28.484 30.7118 29.9377 30.3037C31.2092 29.9493 31.996 29.5322 31.996 29.142C31.996 29.0388 31.9027 28.9132 31.7293 28.7697C31.4892 28.5723 31.1247 28.3884 30.6624 28.2135L30.6579 28.2225ZM22.0201 24.5356L22.0156 24.5266C21.6244 23.8044 22.0734 22.6338 23.1181 21.3196C24.2696 19.8708 26.1189 18.3144 28.3951 16.9868C28.4084 16.9778 28.4173 16.9733 28.4307 16.9644C30.6979 15.6502 32.943 14.8204 34.7523 14.5378C36.3972 14.2821 37.6198 14.4705 38.051 15.1613C38.0599 15.1792 38.0732 15.2016 38.0821 15.2196C38.4733 15.9417 38.0243 17.1124 36.9796 18.4221C35.8282 19.8663 33.9788 21.4272 31.6982 22.7549H31.6893V22.7594C31.6893 22.7594 31.6715 22.7683 31.6671 22.7773C29.4042 24.0915 27.1548 24.9213 25.3454 25.2039C23.6783 25.464 22.4424 25.2622 22.029 24.5445V24.5356H22.0245H22.0201ZM21.6955 25.9529L21.9667 26.4284C20.2952 26.5584 18.8326 26.832 17.7389 27.1953C16.3252 27.6663 15.4717 28.3481 15.4717 29.1554C15.4717 30.0435 16.5342 30.7881 18.2502 31.268C19.7884 31.6986 21.8956 31.9677 24.2162 31.9677C26.5368 31.9677 28.6485 31.7031 30.1822 31.268C31.8982 30.7881 32.9607 30.0435 32.9607 29.1554C32.9607 28.7293 32.7385 28.3481 32.325 28.0117C32.1961 27.9085 32.0449 27.8053 31.876 27.7112C31.996 27.6573 32.1116 27.6035 32.2272 27.5497C32.6273 27.8009 32.9385 28.0655 33.1519 28.3391C33.3608 28.6037 33.472 28.8818 33.472 29.1554C33.472 29.9852 32.5028 30.7836 30.9291 31.3981C29.2175 32.0709 26.8436 32.4835 24.2073 32.4835C21.5711 32.4835 19.1971 32.0664 17.4855 31.3981C15.9162 30.7836 14.9426 29.9852 14.9426 29.1554C14.9426 28.4512 15.6539 27.765 16.8409 27.1909C18.059 26.6033 19.7395 26.1637 21.6778 25.9574L21.6955 25.9529ZM39.0112 16.8432L39.807 18.2337C39.807 18.2337 39.8159 18.2516 39.8203 18.2606C40.0159 18.606 40.0426 18.9917 39.9448 19.4088L39.7181 19.0097C39.5803 18.7719 39.2824 18.6912 39.0468 18.8302C38.8112 18.9693 38.7312 19.2698 38.869 19.5075L39.4513 20.5257C39.1402 21.0236 38.7223 21.5349 38.2466 22.0328L37.8865 21.4048C37.7487 21.1671 37.4508 21.0864 37.2152 21.2254C36.9796 21.3644 36.8996 21.665 37.0374 21.9027L37.5219 22.7504C37.0729 23.172 36.5973 23.5712 36.1349 23.9435L35.7437 23.2572C35.6103 23.0195 35.308 22.9388 35.0769 23.0733C34.8412 23.2079 34.7612 23.5129 34.8946 23.7461L35.348 24.54C34.7834 24.9572 34.2678 25.307 33.8632 25.5627L33.4186 24.7867C33.2853 24.549 32.983 24.4683 32.7518 24.6028C32.5162 24.7374 32.4362 25.0424 32.5695 25.2756L33.0141 26.0561C32.5918 26.2803 32.0316 26.5584 31.3959 26.841L30.938 26.0426C30.8002 25.8049 30.5023 25.7242 30.2667 25.8632C30.0311 26.0022 29.9511 26.3028 30.0889 26.5405L30.4801 27.2267C29.9333 27.4465 29.3509 27.6573 28.7641 27.8412L28.2751 26.989C28.1372 26.7513 27.8394 26.6706 27.6038 26.8096C27.3681 26.9486 27.2881 27.2492 27.4259 27.4869L27.786 28.1148C27.4526 28.1956 27.1236 28.2628 26.7991 28.3122C26.4835 28.3615 26.1723 28.3929 25.8833 28.4019L25.3054 27.3927C25.1676 27.155 24.8697 27.0742 24.6341 27.2133C24.3985 27.3523 24.3185 27.6528 24.4563 27.8906L24.6785 28.2763C24.274 28.1552 23.9539 27.9354 23.7628 27.599L22.9536 26.1817C23.6605 26.3297 24.5185 26.3252 25.4743 26.1772C27.3904 25.8811 29.7599 25.0065 32.1383 23.6295C32.1561 23.6206 32.1739 23.6116 32.1917 23.6026C34.5701 22.2167 36.5172 20.575 37.7353 19.041C38.3444 18.2785 38.7756 17.5295 39.0023 16.8388L39.0112 16.8432Z" fill="#F2D8AE"/>
</svg>
