<svg width="286" height="330" viewBox="0 0 286 330" fill="none" xmlns="http://www.w3.org/2000/svg">
<path d="M274.029 314.14C274.537 314.358 275.125 314.123 275.343 313.616C275.561 313.108 275.326 312.52 274.818 312.302L274.029 314.14ZM62.2149 294.071L63.0033 293.456L63.0031 293.456L62.2149 294.071ZM209.399 58.5973L208.545 59.1166L208.545 59.1167L209.399 58.5973ZM5.7941 95.8622L5.14163 96.62L5.14201 96.6203L5.7941 95.8622ZM50.9548 1.48779C51.2107 0.998392 51.0215 0.394161 50.5321 0.138241C50.0426 -0.11768 49.4384 0.0715861 49.1825 0.561011L50.9548 1.48779ZM220.051 327.254C219.507 327.349 219.142 327.866 219.237 328.41C219.331 328.954 219.849 329.319 220.393 329.225L220.051 327.254ZM284.411 317.095L284.582 318.08C284.958 318.015 285.264 317.742 285.371 317.376C285.478 317.01 285.368 316.615 285.087 316.357L284.411 317.095ZM230.203 266.063C229.796 265.69 229.163 265.717 228.79 266.125C228.417 266.532 228.445 267.164 228.852 267.538L230.203 266.063ZM274.424 313.221C274.818 312.302 274.818 312.302 274.818 312.302C274.817 312.302 274.817 312.301 274.816 312.301C274.815 312.301 274.813 312.3 274.81 312.299C274.805 312.297 274.798 312.293 274.788 312.289C274.769 312.281 274.742 312.27 274.705 312.254C274.633 312.224 274.525 312.179 274.384 312.121C274.101 312.004 273.684 311.835 273.14 311.621C272.053 311.194 270.46 310.588 268.43 309.874C264.37 308.446 258.559 306.579 251.543 304.825C237.52 301.319 218.637 298.246 199.283 300.035L199.467 302.026C218.515 300.266 237.157 303.289 251.058 306.765C258.004 308.502 263.754 310.349 267.766 311.761C269.771 312.466 271.342 313.063 272.408 313.482C272.942 313.692 273.349 313.857 273.622 313.97C273.759 314.026 273.861 314.069 273.93 314.098C273.964 314.112 273.989 314.123 274.006 314.13C274.014 314.133 274.02 314.136 274.024 314.138C274.026 314.139 274.027 314.139 274.028 314.14C274.029 314.14 274.029 314.14 274.029 314.14C274.029 314.14 274.029 314.14 274.424 313.221ZM199.283 300.035C189.647 300.925 177.702 302.822 164.903 304.686C152.083 306.552 138.378 308.39 125.147 309.178C111.91 309.967 99.2025 309.701 88.3696 307.387C77.5345 305.072 68.6799 300.731 63.0033 293.456L61.4265 294.687C67.5011 302.472 76.8665 306.974 87.9517 309.342C99.0391 311.711 111.952 311.968 125.266 311.175C138.588 310.381 152.365 308.533 165.191 306.665C178.038 304.794 189.9 302.91 199.467 302.026L199.283 300.035ZM63.0031 293.456C56.8194 285.537 54.9126 276.862 56.2487 267.576C57.5906 258.25 62.2106 248.279 69.1497 237.868C83.0328 217.038 105.989 194.745 129.62 172.724C153.203 150.746 177.461 129.04 193.761 109.482C201.912 99.7023 208.136 90.3878 211.284 81.7788C214.44 73.146 214.534 65.1199 210.254 58.0778L208.545 59.1167C212.412 65.4792 212.427 72.8275 209.406 81.092C206.375 89.3803 200.322 98.4858 192.225 108.202C176.029 127.634 151.907 149.221 128.256 171.261C104.653 193.256 81.5193 215.703 67.4855 236.759C60.4661 247.291 55.6708 257.549 54.2691 267.291C52.8614 277.074 54.8825 286.306 61.4268 294.687L63.0031 293.456ZM210.254 58.0779C205.037 49.4938 198.465 44.1354 190.866 41.3255C183.286 38.5225 174.768 38.2855 165.689 39.7916C147.564 42.7982 126.934 52.8037 106.503 63.7706C86.001 74.7753 65.7004 86.7456 48.035 93.8872C39.2106 97.4546 31.1257 99.7807 24.0724 100.192C17.0379 100.602 11.0994 99.1063 6.44619 95.104L5.14201 96.6203C10.2978 101.055 16.8009 102.619 24.1888 102.189C31.558 101.759 39.8764 99.3426 48.7846 95.7414C66.5841 88.5457 87.0654 76.4739 107.449 65.5328C127.903 54.5539 148.261 44.7099 166.016 41.7647C174.876 40.2948 183.02 40.5563 190.173 43.2013C197.307 45.8394 203.538 50.8785 208.545 59.1166L210.254 58.0779ZM6.44657 95.1044C1.93839 91.2229 1.35297 85.1454 3.57809 77.4155C5.79762 69.705 10.7334 60.6863 16.7303 51.3818C22.7187 42.0904 29.709 32.5976 35.9928 23.9298C42.2553 15.2914 47.8455 7.43373 50.9548 1.48779L49.1825 0.561011C46.1549 6.35068 40.6627 14.0806 34.3735 22.7559C28.1055 31.402 21.0748 40.9492 15.0492 50.2983C9.03192 59.6345 3.96057 68.8568 1.65614 76.8622C-0.642697 84.8482 -0.26888 91.9616 5.14163 96.62L6.44657 95.1044ZM220.393 329.225L284.582 318.08L284.24 316.109L220.051 327.254L220.393 329.225ZM285.087 316.357L230.203 266.063L228.852 267.538L283.736 317.832L285.087 316.357Z" fill="#6F71EE"/>
</svg>
