<svg width="24" height="24" viewBox="0 0 24 24" fill="none" xmlns="http://www.w3.org/2000/svg">
<path d="M3 17.8627C2.71667 17.8627 2.47933 17.7667 2.288 17.5747C2.096 17.3834 2 17.146 2 16.8627C2 16.5794 2.096 16.342 2.288 16.1507C2.47933 15.9587 2.71667 15.8627 3 15.8627H21C21.2833 15.8627 21.5207 15.9587 21.712 16.1507C21.904 16.342 22 16.5794 22 16.8627C22 17.146 21.904 17.3834 21.712 17.5747C21.5207 17.7667 21.2833 17.8627 21 17.8627H3ZM2.5 11.4377C2.31667 11.3377 2.2 11.1877 2.15 10.9877C2.1 10.7877 2.125 10.596 2.225 10.4127L2.7 9.5627H1.75C1.53333 9.5627 1.354 9.4917 1.212 9.3497C1.07067 9.20836 1 9.02936 1 8.8127C1 8.59603 1.07067 8.41669 1.212 8.27469C1.354 8.13336 1.53333 8.0627 1.75 8.0627H2.7L2.225 7.26269C2.125 7.07936 2.1 6.88769 2.15 6.68769C2.2 6.48769 2.31667 6.3377 2.5 6.2377C2.68333 6.1377 2.875 6.1127 3.075 6.1627C3.275 6.2127 3.425 6.32936 3.525 6.5127L4 7.3127L4.475 6.5127C4.575 6.32936 4.725 6.2127 4.925 6.1627C5.125 6.1127 5.31667 6.1377 5.5 6.2377C5.68333 6.3377 5.8 6.48769 5.85 6.68769C5.9 6.88769 5.875 7.07936 5.775 7.26269L5.3 8.0627H6.25C6.46667 8.0627 6.64567 8.13336 6.787 8.27469C6.929 8.41669 7 8.59603 7 8.8127C7 9.02936 6.929 9.20836 6.787 9.3497C6.64567 9.4917 6.46667 9.5627 6.25 9.5627H5.3L5.775 10.4127C5.875 10.596 5.9 10.7877 5.85 10.9877C5.8 11.1877 5.68333 11.3377 5.5 11.4377C5.31667 11.5377 5.125 11.5627 4.925 11.5127C4.725 11.4627 4.575 11.346 4.475 11.1627L4 10.3127L3.525 11.1627C3.425 11.346 3.275 11.4627 3.075 11.5127C2.875 11.5627 2.68333 11.5377 2.5 11.4377ZM10.5 11.4377C10.3167 11.3377 10.2 11.1877 10.15 10.9877C10.1 10.7877 10.125 10.596 10.225 10.4127L10.7 9.5627H9.75C9.53333 9.5627 9.35433 9.4917 9.213 9.3497C9.071 9.20836 9 9.02936 9 8.8127C9 8.59603 9.071 8.41669 9.213 8.27469C9.35433 8.13336 9.53333 8.0627 9.75 8.0627H10.7L10.225 7.26269C10.125 7.07936 10.1 6.88769 10.15 6.68769C10.2 6.48769 10.3167 6.3377 10.5 6.2377C10.6833 6.1377 10.875 6.1127 11.075 6.1627C11.275 6.2127 11.425 6.32936 11.525 6.5127L12 7.3127L12.475 6.5127C12.575 6.32936 12.725 6.2127 12.925 6.1627C13.125 6.1127 13.3167 6.1377 13.5 6.2377C13.6833 6.3377 13.8 6.48769 13.85 6.68769C13.9 6.88769 13.875 7.07936 13.775 7.26269L13.3 8.0627H14.25C14.4667 8.0627 14.646 8.13336 14.788 8.27469C14.9293 8.41669 15 8.59603 15 8.8127C15 9.02936 14.9293 9.20836 14.788 9.3497C14.646 9.4917 14.4667 9.5627 14.25 9.5627H13.3L13.775 10.4127C13.875 10.596 13.9 10.7877 13.85 10.9877C13.8 11.1877 13.6833 11.3377 13.5 11.4377C13.3167 11.5377 13.125 11.5627 12.925 11.5127C12.725 11.4627 12.575 11.346 12.475 11.1627L12 10.3127L11.525 11.1627C11.425 11.346 11.275 11.4627 11.075 11.5127C10.875 11.5627 10.6833 11.5377 10.5 11.4377ZM18.5 11.4377C18.3167 11.3377 18.2 11.1877 18.15 10.9877C18.1 10.7877 18.125 10.596 18.225 10.4127L18.7 9.5627H17.75C17.5333 9.5627 17.354 9.4917 17.212 9.3497C17.0707 9.20836 17 9.02936 17 8.8127C17 8.59603 17.0707 8.41669 17.212 8.27469C17.354 8.13336 17.5333 8.0627 17.75 8.0627H18.7L18.225 7.26269C18.125 7.07936 18.1 6.88769 18.15 6.68769C18.2 6.48769 18.3167 6.3377 18.5 6.2377C18.6833 6.1377 18.875 6.1127 19.075 6.1627C19.275 6.2127 19.425 6.32936 19.525 6.5127L20 7.3127L20.475 6.5127C20.575 6.32936 20.725 6.2127 20.925 6.1627C21.125 6.1127 21.3167 6.1377 21.5 6.2377C21.6833 6.3377 21.8 6.48769 21.85 6.68769C21.9 6.88769 21.875 7.07936 21.775 7.26269L21.3 8.0627H22.25C22.4667 8.0627 22.646 8.13336 22.788 8.27469C22.9293 8.41669 23 8.59603 23 8.8127C23 9.02936 22.9293 9.20836 22.788 9.3497C22.646 9.4917 22.4667 9.5627 22.25 9.5627H21.3L21.775 10.4127C21.875 10.596 21.9 10.7877 21.85 10.9877C21.8 11.1877 21.6833 11.3377 21.5 11.4377C21.3167 11.5377 21.125 11.5627 20.925 11.5127C20.725 11.4627 20.575 11.346 20.475 11.1627L20 10.3127L19.525 11.1627C19.425 11.346 19.275 11.4627 19.075 11.5127C18.875 11.5627 18.6833 11.5377 18.5 11.4377Z" fill="#206583"/>
</svg>
