<svg width="24" height="24" viewBox="0 0 24 24" fill="none" xmlns="http://www.w3.org/2000/svg">
<path d="M19 19.425L17.575 20.825C17.3917 21.0083 17.1625 21.1042 16.8875 21.1125C16.6125 21.1208 16.375 21.025 16.175 20.825C15.9917 20.6417 15.9 20.4083 15.9 20.125C15.9 19.8417 15.9917 19.6083 16.175 19.425L17.575 18L16.175 16.575C15.9917 16.3917 15.8958 16.1625 15.8875 15.8875C15.8792 15.6125 15.975 15.375 16.175 15.175C16.3583 14.9917 16.5917 14.9 16.875 14.9C17.1583 14.9 17.3917 14.9917 17.575 15.175L19 16.575L20.425 15.175C20.6083 14.9917 20.8375 14.8958 21.1125 14.8875C21.3875 14.8792 21.625 14.975 21.825 15.175C22.0083 15.3583 22.1 15.5917 22.1 15.875C22.1 16.1583 22.0083 16.3917 21.825 16.575L20.425 18L21.825 19.425C22.0083 19.6083 22.1042 19.8375 22.1125 20.1125C22.1208 20.3875 22.025 20.625 21.825 20.825C21.6417 21.0083 21.4083 21.1 21.125 21.1C20.8417 21.1 20.6083 21.0083 20.425 20.825L19 19.425ZM10 9C9.71667 9 9.47917 8.90417 9.2875 8.7125C9.09583 8.52083 9 8.28333 9 8C9 7.71667 9.09583 7.47917 9.2875 7.2875C9.47917 7.09583 9.71667 7 10 7H17C17.2833 7 17.5208 7.09583 17.7125 7.2875C17.9042 7.47917 18 7.71667 18 8C18 8.28333 17.9042 8.52083 17.7125 8.7125C17.5208 8.90417 17.2833 9 17 9H10ZM10 12C9.71667 12 9.47917 11.9042 9.2875 11.7125C9.09583 11.5208 9 11.2833 9 11C9 10.7167 9.09583 10.4792 9.2875 10.2875C9.47917 10.0958 9.71667 10 10 10H17C17.2833 10 17.5208 10.0958 17.7125 10.2875C17.9042 10.4792 18 10.7167 18 11C18 11.2833 17.9042 11.5208 17.7125 11.7125C17.5208 11.9042 17.2833 12 17 12H10ZM6 22C5.16667 22 4.45833 21.7083 3.875 21.125C3.29167 20.5417 3 19.8333 3 19V18C3 17.45 3.19583 16.9792 3.5875 16.5875C3.97917 16.1958 4.45 16 5 16H6V4C6 3.45 6.19583 2.97917 6.5875 2.5875C6.97917 2.19583 7.45 2 8 2H19C19.55 2 20.0208 2.19583 20.4125 2.5875C20.8042 2.97917 21 3.45 21 4V12.375C20.6833 12.2583 20.3583 12.1708 20.025 12.1125C19.6917 12.0542 19.35 12.025 19 12.025V4H8V16H13.35C13.2333 16.3333 13.1458 16.6667 13.0875 17C13.0292 17.3333 13 17.6667 13 18C13 18.7333 13.1292 19.4417 13.3875 20.125C13.6458 20.8083 14.0333 21.4333 14.55 22H6Z" fill="#206583"/>
</svg>
