<svg width="35" height="35" viewBox="0 0 35 35" fill="none" xmlns="http://www.w3.org/2000/svg">
<path d="M12.069 12.0685L16.8966 8.44784L12.069 4.82715V6.63749H0V10.2582H12.069V12.0685Z" fill="#EEABAB"/>
<path d="M26.9801 11.0366L27.7585 11.8211V4.82715H25.3447V11.8211L26.1232 11.0366C26.1793 10.9801 26.246 10.9352 26.3196 10.9045C26.3931 10.8739 26.472 10.8581 26.5516 10.8581C26.6313 10.8581 26.7102 10.8739 26.7837 10.9045C26.8572 10.9352 26.924 10.9801 26.9801 11.0366Z" fill="#EEABAB"/>
<path d="M19.3103 4.82715V16.0754C19.3103 16.2931 19.3968 16.5018 19.5507 16.6557C19.7046 16.8096 19.9133 16.8961 20.131 16.8961H32.9724C33.19 16.8961 33.3988 16.8096 33.5527 16.6557C33.7066 16.5018 33.7931 16.2931 33.7931 16.0754V4.82715H28.9655V13.2754C28.9649 13.3946 28.929 13.5109 28.8625 13.6097C28.7959 13.7084 28.7015 13.7853 28.5913 13.8306C28.5197 13.8644 28.4412 13.8809 28.362 13.8789C28.2826 13.8793 28.2039 13.8641 28.1304 13.8341C28.0568 13.804 27.99 13.7598 27.9336 13.7039L26.5517 12.3159L25.1698 13.7039C25.0849 13.7876 24.9772 13.8443 24.8601 13.8669C24.743 13.8894 24.6219 13.8768 24.512 13.8306C24.4018 13.7853 24.3075 13.7084 24.2409 13.6097C24.1743 13.5109 24.1385 13.3946 24.1379 13.2754V4.82715H19.3103Z" fill="#EEABAB"/>
<path d="M34.2576 0H18.8455C18.4356 0 18.1033 0.332313 18.1033 0.742241V2.87845C18.1033 3.28838 18.4356 3.62069 18.8455 3.62069H34.2576C34.6675 3.62069 34.9998 3.28838 34.9998 2.87845V0.742241C34.9998 0.332313 34.6675 0 34.2576 0Z" fill="#EEABAB"/>
<path d="M16.1543 18.1035H0.742241C0.332313 18.1035 0 18.4358 0 18.8458V20.982C0 21.3919 0.332313 21.7242 0.742241 21.7242H16.1543C16.5642 21.7242 16.8966 21.3919 16.8966 20.982V18.8458C16.8966 18.4358 16.5642 18.1035 16.1543 18.1035Z" fill="#EEABAB"/>
<path d="M22.9309 22.9316L18.1033 26.5523L22.9309 30.173V28.3627H34.9998V24.742H22.9309V22.9316Z" fill="#EEABAB"/>
<path d="M7.84484 26.5518H7.54311C7.30305 26.5518 7.07281 26.6471 6.90306 26.8169C6.73331 26.9866 6.63794 27.2169 6.63794 27.4569C6.63794 27.697 6.73331 27.9272 6.90306 28.097C7.07281 28.2667 7.30305 28.3621 7.54311 28.3621H7.84484V26.5518Z" fill="#EEABAB"/>
<path d="M10.2587 30.4735C10.2587 30.2335 10.1633 30.0032 9.99354 29.8335C9.82378 29.6637 9.59355 29.5684 9.35348 29.5684H9.05176V31.3787H9.35348C9.59355 31.3787 9.82378 31.2833 9.99354 31.1136C10.1633 30.9438 10.2587 30.7136 10.2587 30.4735Z" fill="#EEABAB"/>
<path d="M2.02748 35.0006H14.8689C15.0865 35.0006 15.2953 34.9141 15.4492 34.7602C15.6031 34.6063 15.6895 34.3976 15.6895 34.1799V22.9316H1.20679V34.1799C1.20679 34.3976 1.29325 34.6063 1.44716 34.7602C1.60107 34.9141 1.80982 35.0006 2.02748 35.0006ZM7.54299 29.5696C6.98284 29.5696 6.44563 29.3471 6.04954 28.951C5.65345 28.5549 5.43092 28.0177 5.43092 27.4575C5.43092 26.8973 5.65345 26.3601 6.04954 25.964C6.44563 25.568 6.98284 25.3454 7.54299 25.3454H7.84472V24.742C7.84472 24.5819 7.9083 24.4285 8.02146 24.3153C8.13463 24.2021 8.28812 24.1385 8.44817 24.1385C8.60821 24.1385 8.7617 24.2021 8.87487 24.3153C8.98804 24.4285 9.05161 24.5819 9.05161 24.742V25.3454H10.862C11.022 25.3454 11.1755 25.409 11.2887 25.5222C11.4018 25.6353 11.4654 25.7888 11.4654 25.9489C11.4654 26.1089 11.4018 26.2624 11.2887 26.3756C11.1755 26.4888 11.022 26.5523 10.862 26.5523H9.05161V28.3627H9.35334C9.91349 28.3627 10.4507 28.5852 10.8468 28.9813C11.2429 29.3774 11.4654 29.9146 11.4654 30.4747C11.4654 31.0349 11.2429 31.5721 10.8468 31.9682C10.4507 32.3643 9.91349 32.5868 9.35334 32.5868H9.05161V33.1903C9.05161 33.3503 8.98804 33.5038 8.87487 33.617C8.7617 33.7301 8.60821 33.7937 8.44817 33.7937C8.28812 33.7937 8.13463 33.7301 8.02146 33.617C7.9083 33.5038 7.84472 33.3503 7.84472 33.1903V32.5868H6.03437C5.87433 32.5868 5.72084 32.5232 5.60767 32.4101C5.4945 32.2969 5.43092 32.1434 5.43092 31.9834C5.43092 31.8233 5.4945 31.6698 5.60767 31.5567C5.72084 31.4435 5.87433 31.3799 6.03437 31.3799H7.84472V29.5696H7.54299Z" fill="#EEABAB"/>
</svg>
