<svg width="35" height="35" viewBox="0 0 35 35" fill="none" xmlns="http://www.w3.org/2000/svg">
<path fill-rule="evenodd" clip-rule="evenodd" d="M16.7245 18.2755C16.2969 18.4789 15.8178 18.5938 15.3125 18.5938C12.402 18.5938 7.28547 18.5938 4.375 18.5938C2.56266 18.5938 1.09375 17.1248 1.09375 15.3125C1.09375 12.402 1.09375 7.28547 1.09375 4.375C1.09375 2.56266 2.56266 1.09375 4.375 1.09375C7.28547 1.09375 12.402 1.09375 15.3125 1.09375C17.1248 1.09375 18.5938 2.56266 18.5938 4.375V15.3125C18.5938 15.8178 18.4789 16.2969 18.2755 16.7245C18.7031 16.5211 19.1822 16.4062 19.6875 16.4062C22.598 16.4062 27.7145 16.4062 30.625 16.4062C32.4373 16.4062 33.9062 17.8752 33.9062 19.6875V30.625C33.9062 32.4373 32.4373 33.9062 30.625 33.9062C27.7145 33.9062 22.598 33.9062 19.6875 33.9062C17.8752 33.9062 16.4062 32.4373 16.4062 30.625C16.4062 27.7145 16.4062 22.598 16.4062 19.6875C16.4062 19.1822 16.5211 18.7031 16.7245 18.2755ZM8.75 24.0625V21.875C8.75 21.2712 9.24 20.7812 9.84375 20.7812C10.4475 20.7812 10.9375 21.2712 10.9375 21.875V24.0625H13.125C13.7288 24.0625 14.2188 24.5525 14.2188 25.1562C14.2188 25.76 13.7288 26.25 13.125 26.25H10.9375V28.4375C10.9375 29.0413 10.4475 29.5312 9.84375 29.5312C9.24 29.5312 8.75 29.0413 8.75 28.4375V26.25H6.5625C5.95875 26.25 5.46875 25.76 5.46875 25.1562C5.46875 24.5525 5.95875 24.0625 6.5625 24.0625H8.75ZM28.4375 24.0625H21.875C21.2712 24.0625 20.7812 24.5525 20.7812 25.1562C20.7812 25.76 21.2712 26.25 21.875 26.25H28.4375C29.0413 26.25 29.5312 25.76 29.5312 25.1562C29.5312 24.5525 29.0413 24.0625 28.4375 24.0625ZM25.1562 12.0312C25.76 12.0312 26.25 12.5212 26.25 13.125C26.25 13.7288 25.76 14.2188 25.1562 14.2188C24.5525 14.2188 24.0625 13.7288 24.0625 13.125C24.0625 12.5212 24.5525 12.0312 25.1562 12.0312ZM9.84375 8.29719L11.3903 6.75062C11.8169 6.32297 12.5103 6.32297 12.9369 6.75062C13.3645 7.17718 13.3645 7.87062 12.9369 8.29719L11.3903 9.84375L12.9369 11.3903C13.3645 11.8169 13.3645 12.5103 12.9369 12.9369C12.5103 13.3645 11.8169 13.3645 11.3903 12.9369L9.84375 11.3903L8.29719 12.9369C7.87062 13.3645 7.17719 13.3645 6.75063 12.9369C6.32297 12.5103 6.32297 11.8169 6.75063 11.3903L8.29719 9.84375L6.75063 8.29719C6.32297 7.87062 6.32297 7.17718 6.75063 6.75062C7.17719 6.32297 7.87062 6.32297 8.29719 6.75062L9.84375 8.29719ZM21.875 10.9375H28.4375C29.0413 10.9375 29.5312 10.4475 29.5312 9.84375C29.5312 9.24 29.0413 8.75 28.4375 8.75H21.875C21.2712 8.75 20.7812 9.24 20.7812 9.84375C20.7812 10.4475 21.2712 10.9375 21.875 10.9375ZM25.1562 5.46875C25.76 5.46875 26.25 5.95875 26.25 6.5625C26.25 7.16625 25.76 7.65625 25.1562 7.65625C24.5525 7.65625 24.0625 7.16625 24.0625 6.5625C24.0625 5.95875 24.5525 5.46875 25.1562 5.46875Z" fill="#EEABAB"/>
</svg>
