<svg width="24" height="24" viewBox="0 0 24 24" fill="none" xmlns="http://www.w3.org/2000/svg">
<path d="M10.651 1.5C13.151 1.5 15.276 2.375 17.026 4.125C18.776 5.875 19.651 8 19.651 10.5H17.651C17.651 8.55 16.9717 6.89567 15.613 5.537C14.255 4.179 12.601 3.5 10.651 3.5C9.501 3.5 8.426 3.76667 7.426 4.3C6.426 4.83333 5.58433 5.56667 4.901 6.5H6.651C6.93433 6.5 7.172 6.59567 7.364 6.787C7.55533 6.979 7.651 7.21667 7.651 7.5C7.651 7.78333 7.55533 8.02067 7.364 8.212C7.172 8.404 6.93433 8.5 6.651 8.5H2.651C2.36767 8.5 2.13033 8.404 1.939 8.212C1.747 8.02067 1.651 7.78333 1.651 7.5V3.5C1.651 3.21667 1.747 2.979 1.939 2.787C2.13033 2.59567 2.36767 2.5 2.651 2.5C2.93433 2.5 3.172 2.59567 3.364 2.787C3.55533 2.979 3.651 3.21667 3.651 3.5V4.85C4.501 3.78333 5.53867 2.95833 6.764 2.375C7.98867 1.79167 9.28433 1.5 10.651 1.5ZM12.001 13.25L9.951 11.2C9.851 11.1 9.776 10.9873 9.726 10.862C9.676 10.7373 9.651 10.6083 9.651 10.475V6.5C9.651 6.21667 9.747 5.979 9.939 5.787C10.1303 5.59567 10.3677 5.5 10.651 5.5C10.9343 5.5 11.172 5.59567 11.364 5.787C11.5553 5.979 11.651 6.21667 11.651 6.5V10.1L13.051 11.5L12.001 13.25ZM10.726 19.5C8.59267 19.5 6.697 18.8583 5.039 17.575C3.38033 16.2917 2.34267 14.7583 1.926 12.975C1.84267 12.675 1.872 12.3917 2.014 12.125C2.15533 11.8583 2.376 11.6917 2.676 11.625C2.95933 11.5583 3.21333 11.6207 3.438 11.812C3.66333 12.004 3.81767 12.2417 3.901 12.525C4.251 13.7583 4.93833 14.8207 5.963 15.712C6.98833 16.604 8.176 17.1667 9.526 17.4L10.726 19.5ZM16.326 21C16.126 20.9167 15.9387 20.8293 15.764 20.738C15.5887 20.646 15.4093 20.5333 15.226 20.4L14.151 20.725C14.0343 20.7583 13.926 20.754 13.826 20.712C13.726 20.6707 13.6427 20.6 13.576 20.5L12.976 19.5C12.9093 19.4 12.8927 19.2917 12.926 19.175C12.9593 19.0583 13.0177 18.9583 13.101 18.875L13.926 18.15C13.8927 17.9333 13.876 17.7167 13.876 17.5C13.876 17.2833 13.8927 17.0667 13.926 16.85L13.101 16.125C13.0177 16.0417 12.9593 15.9417 12.926 15.825C12.8927 15.7083 12.9093 15.6 12.976 15.5L13.576 14.5C13.6427 14.4 13.726 14.329 13.826 14.287C13.926 14.2457 14.0343 14.2417 14.151 14.275L15.226 14.6C15.4093 14.4667 15.5887 14.354 15.764 14.262C15.9387 14.1707 16.126 14.0833 16.326 14L16.551 12.9C16.5843 12.7833 16.6383 12.6877 16.713 12.613C16.7883 12.5377 16.8927 12.5 17.026 12.5H18.226C18.3593 12.5 18.4637 12.5377 18.539 12.613C18.6137 12.6877 18.6677 12.7833 18.701 12.9L18.926 14C19.126 14.0833 19.3177 14.179 19.501 14.287C19.6843 14.3957 19.8593 14.5167 20.026 14.65L21.076 14.275C21.1927 14.2417 21.3053 14.2457 21.414 14.287C21.522 14.329 21.6093 14.4 21.676 14.5L22.276 15.55C22.3427 15.65 22.3637 15.7583 22.339 15.875C22.3137 15.9917 22.2593 16.0917 22.176 16.175L21.326 16.9C21.3593 17.1167 21.376 17.325 21.376 17.525C21.376 17.725 21.3593 17.9333 21.326 18.15L22.151 18.875C22.2343 18.9583 22.2927 19.0583 22.326 19.175C22.3593 19.2917 22.3427 19.4 22.276 19.5L21.676 20.5C21.6093 20.6 21.526 20.6707 21.426 20.712C21.326 20.754 21.2177 20.7583 21.101 20.725L20.026 20.4C19.8427 20.5333 19.6637 20.646 19.489 20.738C19.3137 20.8293 19.126 20.9167 18.926 21L18.701 22.1C18.6677 22.2167 18.6137 22.3123 18.539 22.387C18.4637 22.4623 18.3593 22.5 18.226 22.5H17.026C16.8927 22.5 16.7883 22.4623 16.713 22.387C16.6383 22.3123 16.5843 22.2167 16.551 22.1L16.326 21ZM17.626 19.5C18.176 19.5 18.647 19.3043 19.039 18.913C19.4303 18.521 19.626 18.05 19.626 17.5C19.626 16.95 19.4303 16.479 19.039 16.087C18.647 15.6957 18.176 15.5 17.626 15.5C17.076 15.5 16.605 15.6957 16.213 16.087C15.8217 16.479 15.626 16.95 15.626 17.5C15.626 18.05 15.8217 18.521 16.213 18.913C16.605 19.3043 17.076 19.5 17.626 19.5Z" fill="#206583"/>
</svg>
