<svg width="64" height="64" viewBox="0 0 64 64" fill="none" xmlns="http://www.w3.org/2000/svg">
<path fill-rule="evenodd" clip-rule="evenodd" d="M60.6667 14.6673C60.6667 12.7233 59.8934 10.8567 58.52 9.48065C57.144 8.10732 55.2774 7.33398 53.3334 7.33398C43.1147 7.33398 20.8854 7.33398 10.6667 7.33398C8.72271 7.33398 6.85604 8.10732 5.48004 9.48065C4.10671 10.8567 3.33337 12.7233 3.33337 14.6673V41.334C3.33337 45.3847 6.61604 48.6673 10.6667 48.6673H13.3334C13.7014 48.6673 14 48.966 14 49.334V51.7847C14 53.5793 15.0294 55.214 16.6454 55.9927C18.2614 56.7687 20.1814 56.55 21.5814 55.43L29.8534 48.814C29.9707 48.718 30.1174 48.6673 30.2694 48.6673H53.3334C55.2774 48.6673 57.144 47.894 58.52 46.5207C59.8934 45.1447 60.6667 43.278 60.6667 41.334V14.6673ZM34.864 34.286C33.96 33.1873 33.0854 31.2673 33.36 27.9127C33.8027 22.4727 39.7067 19.9127 39.7067 19.9127L40.792 21.566C40.792 21.566 37.4694 23.3607 37.768 27.494C37.968 27.4673 38.168 27.454 38.3734 27.454C40.7574 27.454 42.6934 29.3873 42.6934 31.7713C42.6934 34.1527 40.7574 36.0887 38.3734 36.0887C37.7387 36.0887 37.1334 35.95 36.5867 35.702C36.5787 35.702 35.2907 34.9873 34.864 34.286ZM22.864 34.286C21.96 33.1873 21.0854 31.2673 21.36 27.9127C21.8027 22.4727 27.7067 19.9127 27.7067 19.9127L28.792 21.566C28.792 21.566 25.4694 23.3607 25.768 27.494C25.968 27.4673 26.168 27.454 26.3734 27.454C28.7574 27.454 30.6934 29.3873 30.6934 31.7713C30.6934 34.1527 28.7574 36.0887 26.3734 36.0887C25.7387 36.0887 25.1334 35.95 24.5867 35.702C24.5787 35.702 23.2907 34.9873 22.864 34.286Z" fill="#6F71EE"/>
</svg>
