<svg width="34" height="35" viewBox="0 0 34 35" fill="none" xmlns="http://www.w3.org/2000/svg">
<path d="M26.5506 5.43107H25.3438V4.22423C25.3438 3.74412 25.5345 3.28367 25.874 2.94418C26.2135 2.60469 26.6739 2.41397 27.154 2.41397H29.5677C29.7277 2.41397 29.8812 2.35039 29.9944 2.23723C30.1075 2.12407 30.1711 1.97058 30.1711 1.81055H31.3779C31.3779 2.29066 31.1872 2.7511 30.8477 3.09059C30.5082 3.43008 30.0478 3.62081 29.5677 3.62081H27.154C26.994 3.62081 26.8405 3.68438 26.7273 3.79754C26.6142 3.91071 26.5506 4.06419 26.5506 4.22423V5.43107Z" fill="#F2D8AE"/>
<path d="M22.93 3.62052H21.7231V2.41368C21.7231 1.93357 21.9139 1.47312 22.2534 1.13363C22.5928 0.794143 23.0533 0.60342 23.5334 0.60342H25.9471C26.1071 0.60342 26.2606 0.539846 26.3738 0.426682C26.4869 0.313519 26.5505 0.160037 26.5505 0H27.7573C27.7573 0.480111 27.5666 0.940557 27.2271 1.28005C26.8876 1.61954 26.4272 1.81026 25.9471 1.81026H23.5334C23.3734 1.81026 23.2199 1.87383 23.1067 1.987C22.9936 2.10016 22.93 2.25364 22.93 2.41368V3.62052Z" fill="#F2D8AE"/>
<path d="M11.465 10.2586C11.7983 10.2586 12.0684 9.98844 12.0684 9.65518C12.0684 9.32192 11.7983 9.05176 11.465 9.05176C11.1317 9.05176 10.8616 9.32192 10.8616 9.65518C10.8616 9.98844 11.1317 10.2586 11.465 10.2586Z" fill="#F2D8AE"/>
<path d="M12.0685 22.3263V16.8955H7.24115V22.3263C7.24106 22.4475 7.20448 22.5659 7.13615 22.666L3.67554 27.7414C3.72864 27.7601 3.78415 27.7788 3.83544 27.7975C4.72622 28.1518 5.67933 28.3228 6.63773 28.3001C7.59996 28.3235 8.55688 28.1509 9.45027 27.7927C10.4745 27.3856 11.5701 27.1888 12.6719 27.214C13.6674 27.1893 14.6589 27.3493 15.5961 27.6859L12.1735 22.666C12.1052 22.5659 12.0686 22.4475 12.0685 22.3263ZM9.47983 22.1513L9.38932 22.2237C9.35563 22.2464 9.31911 22.2647 9.2807 22.278C9.24455 22.2964 9.2056 22.3086 9.16545 22.3142C9.12781 22.3212 9.08968 22.3253 9.05141 22.3263C9.01095 22.325 8.97063 22.321 8.93072 22.3142C8.89291 22.3076 8.8563 22.2954 8.82211 22.278C8.7835 22.2647 8.74679 22.2465 8.71289 22.2237L8.62298 22.1513C8.51256 22.0358 8.45003 21.8827 8.44799 21.7229C8.4459 21.6437 8.46244 21.5652 8.49626 21.4936C8.52687 21.4205 8.56972 21.3531 8.62298 21.2944C8.65156 21.2686 8.68158 21.2445 8.71289 21.222C8.74679 21.1993 8.7835 21.181 8.82211 21.1677C8.8563 21.1503 8.89291 21.1381 8.93072 21.1315C9.00792 21.1134 9.08825 21.1134 9.16545 21.1315C9.2056 21.1371 9.24455 21.1494 9.2807 21.1677C9.31911 21.181 9.35563 21.1993 9.38932 21.222C9.42082 21.2445 9.45104 21.2686 9.47983 21.2944C9.53309 21.3531 9.57594 21.4205 9.60655 21.4936C9.63747 21.5661 9.65387 21.644 9.65483 21.7229C9.65248 21.8826 9.59 22.0356 9.47983 22.1513ZM11.2901 25.7718L11.1996 25.8442C11.1659 25.867 11.1294 25.8852 11.091 25.8985C11.0548 25.9169 11.0159 25.9291 10.9757 25.9347C10.9381 25.9418 10.8999 25.9458 10.8617 25.9468C10.8212 25.9455 10.7809 25.9415 10.741 25.9347C10.7032 25.9282 10.6666 25.916 10.6324 25.8985C10.5938 25.8852 10.557 25.867 10.5231 25.8442L10.4332 25.7718C10.3211 25.6574 10.2582 25.5036 10.2582 25.3434C10.2582 25.1832 10.3211 25.0293 10.4332 24.915C10.5035 24.8454 10.5898 24.7941 10.6844 24.7657C10.7791 24.7373 10.8794 24.7326 10.9763 24.752C11.0165 24.7577 11.0554 24.7699 11.0916 24.7882C11.13 24.8016 11.1665 24.8198 11.2002 24.8425L11.2907 24.915C11.4029 25.0293 11.4657 25.1832 11.4657 25.3434C11.4657 25.5036 11.4029 25.6574 11.2907 25.7718H11.2901Z" fill="#F2D8AE"/>
<path d="M6.63766 6.0338V3.62012H1.8103V11.3354C2.01605 11.3718 2.21803 11.427 2.41372 11.5002C2.66824 11.6038 2.94156 11.6534 3.21627 11.6456C3.49056 11.653 3.76341 11.6035 4.01761 11.5002C4.40326 11.3495 4.81471 11.2759 5.22868 11.2836C5.64226 11.2758 6.05333 11.3494 6.43853 11.5002C6.50612 11.5243 6.57129 11.546 6.63766 11.5666V10.8424H4.8274V9.63561H6.63766V7.24064H4.8274V6.0338H6.63766Z" fill="#F2D8AE"/>
<path d="M27.154 21.7225C27.4872 21.7225 27.7574 21.4523 27.7574 21.119C27.7574 20.7858 27.4872 20.5156 27.154 20.5156C26.8207 20.5156 26.5505 20.7858 26.5505 21.119C26.5505 21.4523 26.8207 21.7225 27.154 21.7225Z" fill="#F2D8AE"/>
<path d="M14.7415 24.2909C14.855 24.2511 14.972 24.2125 15.0836 24.1703C16.5557 23.5857 18.1303 23.3033 19.7137 23.34C26.9795 24.853 22.8743 23.5871 24.3474 24.1727C25.6875 24.7094 27.1227 24.968 28.5659 24.933C30.009 24.9684 31.4443 24.7097 32.7844 24.1727C33.0674 24.0701 33.3661 23.9681 33.6774 23.871C33.4077 22.0776 32.6353 20.3973 31.4499 19.0248C30.2645 17.6523 28.7145 16.6437 26.9795 16.1158C26.8553 16.0783 26.7466 16.0019 26.6693 15.8978C26.592 15.7936 26.5504 15.6674 26.5504 15.5377V10.2578H21.7231V15.5377C21.7233 15.6664 21.6825 15.7917 21.6065 15.8955C21.5305 15.9992 21.4234 16.076 21.3007 16.1146C19.5386 16.6558 17.9686 17.6907 16.7768 19.0969C15.5849 20.5031 14.8212 22.2214 14.5762 24.0484L14.7415 24.2909ZM27.1539 19.3091C27.5119 19.3091 27.8619 19.4153 28.1596 19.6142C28.4573 19.8131 28.6893 20.0958 28.8263 20.4266C28.9633 20.7574 28.9992 21.1214 28.9293 21.4725C28.8595 21.8237 28.6871 22.1462 28.4339 22.3994C28.1807 22.6526 27.8582 22.825 27.507 22.8948C27.1559 22.9647 26.7919 22.9288 26.4611 22.7918C26.1303 22.6548 25.8476 22.4228 25.6487 22.1251C25.4498 21.8274 25.3436 21.4774 25.3436 21.1194C25.3436 20.6393 25.5343 20.1788 25.8738 19.8393C26.2133 19.4998 26.6737 19.3091 27.1539 19.3091ZM20.6912 18.8807C20.7758 18.7968 20.8833 18.7398 21.0003 18.7169C21.1172 18.694 21.2382 18.7063 21.3482 18.7521C21.4582 18.7979 21.5521 18.8753 21.6182 18.9744C21.6843 19.0735 21.7196 19.19 21.7196 19.3091C21.7196 19.4282 21.6843 19.5447 21.6182 19.6438C21.5521 19.743 21.4582 19.8203 21.3482 19.8661C21.2382 19.9119 21.1172 19.9242 21.0003 19.9013C20.8833 19.8784 20.7758 19.8214 20.6912 19.7375C20.638 19.6788 20.5951 19.6115 20.5645 19.5384C20.5307 19.4668 20.5142 19.3883 20.5162 19.3091C20.5183 19.1493 20.5808 18.9962 20.6912 18.8807Z" fill="#F2D8AE"/>
<path d="M27.7573 7.84375H20.5163C20.3562 7.84375 20.2027 7.90732 20.0896 8.02049C19.9764 8.13365 19.9128 8.28713 19.9128 8.44717C19.9128 8.60721 19.9764 8.76069 20.0896 8.87385C20.2027 8.98702 20.3562 9.05059 20.5163 9.05059H27.7573C27.9173 9.05059 28.0708 8.98702 28.184 8.87385C28.2971 8.76069 28.3607 8.60721 28.3607 8.44717C28.3607 8.28713 28.2971 8.13365 28.184 8.02049C28.0708 7.90732 27.9173 7.84375 27.7573 7.84375Z" fill="#F2D8AE"/>
<path d="M13.2754 14.4824H6.03433C5.87429 14.4824 5.72081 14.546 5.60765 14.6592C5.49448 14.7723 5.43091 14.9258 5.43091 15.0858C5.43091 15.2459 5.49448 15.3994 5.60765 15.5125C5.72081 15.6257 5.87429 15.6893 6.03433 15.6893H13.2754C13.4354 15.6893 13.5889 15.6257 13.702 15.5125C13.8152 15.3994 13.8788 15.2459 13.8788 15.0858C13.8788 14.9258 13.8152 14.7723 13.702 14.6592C13.5889 14.546 13.4354 14.4824 13.2754 14.4824Z" fill="#F2D8AE"/>
<path d="M2.15286 34.9983H17.1563C17.4855 34.9982 17.8085 34.9084 18.0904 34.7384C18.3724 34.5685 18.6027 34.3248 18.7565 34.0337C18.9103 33.7427 18.9818 33.4151 18.9633 33.0864C18.9448 32.7577 18.837 32.4403 18.6516 32.1683L16.6965 29.3008C16.287 29.2018 15.8839 29.0777 15.4896 28.9291C14.5945 28.5705 13.6357 28.3976 12.6717 28.421C11.7094 28.3977 10.7525 28.5703 9.85914 28.9285C8.83494 29.3356 7.73931 29.5324 6.63748 29.5072C5.5407 29.5318 4.45006 29.3369 3.4297 28.934C3.27522 28.879 3.12437 28.8259 2.9705 28.7759L0.657587 32.1683C0.472126 32.4403 0.364355 32.7577 0.345873 33.0864C0.327391 33.4151 0.398896 33.7427 0.552695 34.0337C0.706494 34.3248 0.936762 34.5685 1.21872 34.7384C1.50067 34.9084 1.82364 34.9982 2.15286 34.9983Z" fill="#F2D8AE"/>
<path d="M33.7817 25.1024C33.5849 25.1688 33.3913 25.2382 33.1933 25.3094C31.7222 25.894 30.1484 26.1766 28.5657 26.1403C26.9832 26.1759 25.4096 25.8929 23.9387 25.3082C22.5967 24.7712 21.1597 24.5123 19.7147 24.5472C18.2697 24.5113 16.8325 24.7702 15.4908 25.3082L15.4443 25.3244L19.6466 31.4884C19.9026 31.8637 20.0701 32.2922 20.1364 32.7417C20.2028 33.1911 20.1663 33.6498 20.0297 34.0831C21.5013 34.7747 23.1237 35.0835 24.7465 34.9808C26.3692 34.8781 27.9398 34.3672 29.3124 33.4956C30.685 32.6239 31.8152 31.4196 32.5982 29.9946C33.3812 28.5695 33.7916 26.9698 33.7913 25.3438C33.7913 25.2623 33.7835 25.182 33.7817 25.1024ZM22.7548 28.7893C22.6555 28.8905 22.5241 28.9542 22.3831 28.9693C22.2421 28.9844 22.1002 28.95 21.9817 28.8721C21.8632 28.7942 21.7755 28.6776 21.7335 28.5421C21.6915 28.4066 21.6978 28.2608 21.7515 28.1295C21.8051 27.9982 21.9026 27.8897 22.0275 27.8223C22.1523 27.755 22.2966 27.7332 22.4358 27.7605C22.5749 27.7878 22.7003 27.8626 22.7904 27.9721C22.8805 28.0816 22.9298 28.219 22.9298 28.3609C22.9274 28.5206 22.8649 28.6736 22.7548 28.7893ZM28.9157 31.0038C28.8851 31.0769 28.8422 31.1443 28.789 31.203L28.6985 31.2754C28.6648 31.2981 28.6282 31.3164 28.5898 31.3297C28.5556 31.347 28.519 31.3592 28.4812 31.3659C28.4413 31.3729 28.401 31.3769 28.3605 31.378C28.3201 31.3767 28.2798 31.3726 28.2399 31.3659C28.202 31.3593 28.1654 31.3471 28.1312 31.3297C28.0926 31.3164 28.0559 31.2981 28.022 31.2754L27.9321 31.203C27.8789 31.1443 27.836 31.0769 27.8054 31.0038C27.7745 30.9313 27.7581 30.8534 27.7571 30.7745C27.7564 30.6547 27.7914 30.5373 27.8577 30.4375C27.9239 30.3376 28.0184 30.2597 28.1291 30.2137C28.2398 30.1678 28.3617 30.1558 28.4792 30.1794C28.5967 30.203 28.7046 30.261 28.789 30.3461L28.8614 30.4366C28.884 30.4704 28.9022 30.5069 28.9157 30.5452C28.9332 30.5793 28.9452 30.616 28.9513 30.6538C28.9588 30.6937 28.963 30.734 28.964 30.7745C28.963 30.8534 28.9466 30.9313 28.9157 31.0038Z" fill="#F2D8AE"/>
<path d="M7.84446 1.20605H0.60342C0.443383 1.20605 0.289901 1.26963 0.176738 1.38279C0.0635745 1.49596 0 1.64944 0 1.80947C0 1.96951 0.0635745 2.12299 0.176738 2.23616C0.289901 2.34932 0.443383 2.41289 0.60342 2.41289H7.84446C8.0045 2.41289 8.15798 2.34932 8.27114 2.23616C8.38431 2.12299 8.44788 1.96951 8.44788 1.80947C8.44788 1.64944 8.38431 1.49596 8.27114 1.38279C8.15798 1.26963 8.0045 1.20605 7.84446 1.20605Z" fill="#F2D8AE"/>
<path d="M1.8103 28.3356L6.03424 22.1402V16.8959C5.55413 16.8959 5.09368 16.7052 4.75419 16.3657C4.41471 16.0262 4.22398 15.5658 4.22398 15.0857C4.22398 14.6056 4.41471 14.1451 4.75419 13.8056C5.09368 13.4661 5.55413 13.2754 6.03424 13.2754H6.63766V12.8017C6.43054 12.7651 6.22716 12.7097 6.03002 12.6364C5.77582 12.5331 5.50297 12.4836 5.22868 12.491C4.95399 12.4835 4.68074 12.5331 4.42613 12.6364C4.04092 12.7871 3.62985 12.8607 3.21627 12.853C2.8037 12.8603 2.3937 12.7867 2.00943 12.6364C1.94245 12.6122 1.87849 12.5905 1.81272 12.5706L1.8103 28.3356ZM4.39897 20.6914C4.48356 20.6075 4.59109 20.5506 4.708 20.5277C4.82492 20.5048 4.94599 20.517 5.05596 20.5629C5.16594 20.6087 5.25989 20.686 5.32597 20.7851C5.39206 20.8843 5.42732 21.0007 5.42732 21.1199C5.42732 21.239 5.39206 21.3555 5.32597 21.4546C5.25989 21.5537 5.16594 21.6311 5.05596 21.6769C4.94599 21.7227 4.82492 21.7349 4.708 21.712C4.59109 21.6892 4.48356 21.6322 4.39897 21.5483C4.34572 21.4896 4.30287 21.4223 4.27226 21.3492C4.23843 21.2776 4.2219 21.199 4.22398 21.1199C4.22603 20.9601 4.28856 20.807 4.39897 20.6914ZM2.58871 17.0709C2.70421 16.9633 2.85623 16.9034 3.01413 16.9034C3.17202 16.9034 3.32404 16.9633 3.43954 17.0709C3.49787 17.1267 3.5432 17.1947 3.57229 17.27C3.60321 17.3426 3.61961 17.4205 3.62056 17.4993C3.61946 17.659 3.55553 17.8119 3.4426 17.9248C3.32968 18.0377 3.17684 18.1017 3.01714 18.1028C2.97667 18.1017 2.93633 18.0977 2.89646 18.0907C2.85865 18.0841 2.82203 18.0719 2.78784 18.0545C2.74924 18.0412 2.71253 18.0229 2.67862 18.0002L2.58871 17.9278C2.47653 17.8134 2.41369 17.6596 2.41369 17.4993C2.41369 17.3391 2.47653 17.1853 2.58871 17.0709Z" fill="#F2D8AE"/>
<path d="M25.3438 4.22423V5.43107H26.5506V4.22423C26.5506 4.06419 26.6142 3.91071 26.7273 3.79754C26.8405 3.68438 26.994 3.62081 27.154 3.62081H29.5677C30.0478 3.62081 30.5082 3.43008 30.8477 3.09059C31.1872 2.7511 31.3779 2.29066 31.3779 1.81055H30.1711C30.1711 1.97058 30.1075 2.12407 29.9944 2.23723C29.8812 2.35039 29.7277 2.41397 29.5677 2.41397H27.154C26.6739 2.41397 26.2135 2.60469 25.874 2.94418C25.5345 3.28367 25.3438 3.74412 25.3438 4.22423Z" fill="#F2D8AE"/>
<path d="M22.93 2.41368C22.93 2.25364 22.9936 2.10016 23.1067 1.987C23.2199 1.87383 23.3734 1.81026 23.5334 1.81026H25.9471C26.4272 1.81026 26.8876 1.61954 27.2271 1.28005C27.5666 0.940557 27.7573 0.480111 27.7573 0H26.5505C26.5505 0.160037 26.4869 0.313519 26.3738 0.426682C26.2606 0.539846 26.1071 0.60342 25.9471 0.60342H23.5334C23.0533 0.60342 22.5928 0.794143 22.2534 1.13363C21.9139 1.47312 21.7231 1.93357 21.7231 2.41368V3.62052H22.93V2.41368Z" fill="#F2D8AE"/>
</svg>
